{"asset":{"generator":"Khronos glTF Spline I/O v0.0.1","version":"2.0"},"scenes":[{"nodes":[0]}],"nodes":[{"name":"","children":[1,2,3]},{"name":"Icosahedron","matrix":[1,0,0,0,0,1,0,0,0,0,1,0,0,0,0,1],"mesh":0},{"name":"Directional Light","translation":[200,300,300],"rotation":[-0.4062840720729887,0.12301291902225084,-0.2623788760260691,0.8665785595944042],"extensions":{"KHR_lights_punctual":{"light":0}}},{"name":"Personal Camera","camera":0,"translation":[416.8947380707909,220.8706334592086,-1382.8852815564242],"rotation":[-0.015259441995059438,0.9847325537457058,0.12459935131865212,0.12059829465805524]}],"cameras":[{"type":"perspective","perspective":{"aspectRatio":1.97327852004111,"yfov":0.7853981633974483,"znear":5,"zfar":100000}}],"meshes":[{"primitives":[{"attributes":{"POSITION":0,"NORMAL":1,"TEXCOORD_0":2}}]}],"buffers":[{"uri":"data:application/octet-stream;base64,","byteLength":1920}],"bufferViews":[{"buffer":0,"byteOffset":0,"byteLength":720,"target":34962},{"buffer":0,"byteOffset":720,"byteLength":720,"target":34962},{"buffer":0,"byteOffset":1440,"byteLength":480,"target":34962}],"accessors":[{"bufferView":0,"byteOffset":0,"componentType":5126,"count":60,"type":"VEC3","min":[-137.8484344482422,-137.8484344482422,-137.8484344482422],"max":[137.8484344482422,137.8484344482422,137.8484344482422]},{"bufferView":1,"byteOffset":0,"componentType":5126,"count":60,"type":"VEC3","min":[-0.9341723322868347,-0.9341723322868347,-0.9341723322868347],"max":[0.9341723322868347,0.9341723322868347,0.9341723322868347]},{"bufferView":2,"byteOffset":0,"componentType":5126,"count":60,"type":"VEC2","min":[0,0.17620819807052612],"max":[1.0881041288375854,0.8237918019294739]}],"extensions":{"KHR_lights_punctual":{"lights":[{"type":"directional","name":"Directional Light","color":[1,1,1],"intensity":0.7}]}},"extensionsUsed":["KHR_lights_punctual"]}